<svg xmlns="http://www.w3.org/2000/svg" xmlns:xlink="http://www.w3.org/1999/xlink" width="1080" zoomAndPan="magnify" viewBox="0 0 810 809.999993" height="1080" preserveAspectRatio="xMidYMid meet" version="1.0"><defs><clipPath id="e278254de1"><path d="M 128 129.632812 L 732 129.632812 L 732 593 L 128 593 Z M 128 129.632812 " clip-rule="nonzero"/></clipPath></defs><g clip-path="url(#e278254de1)"><path fill="#f5f5f5" d="M 160.335938 129.632812 L 699.15625 129.632812 C 700.214844 129.632812 701.273438 129.683594 702.328125 129.789062 C 703.378906 129.890625 704.425781 130.046875 705.464844 130.253906 C 706.503906 130.460938 707.527344 130.714844 708.542969 131.023438 C 709.554688 131.332031 710.550781 131.6875 711.527344 132.09375 C 712.507812 132.496094 713.464844 132.949219 714.398438 133.449219 C 715.332031 133.945312 716.238281 134.492188 717.117188 135.078125 C 718 135.667969 718.847656 136.296875 719.667969 136.96875 C 720.484375 137.640625 721.269531 138.347656 722.019531 139.097656 C 722.765625 139.847656 723.476562 140.628906 724.148438 141.449219 C 724.820312 142.265625 725.449219 143.117188 726.039062 143.996094 C 726.625 144.875 727.171875 145.78125 727.667969 146.714844 C 728.167969 147.648438 728.621094 148.605469 729.027344 149.582031 C 729.429688 150.5625 729.789062 151.554688 730.09375 152.570312 C 730.402344 153.582031 730.660156 154.609375 730.867188 155.644531 C 731.070312 156.683594 731.226562 157.730469 731.332031 158.78125 C 731.433594 159.835938 731.488281 160.890625 731.488281 161.949219 L 731.488281 560.550781 C 731.488281 561.609375 731.433594 562.667969 731.332031 563.71875 C 731.226562 564.773438 731.070312 565.820312 730.867188 566.855469 C 730.660156 567.894531 730.402344 568.921875 730.09375 569.933594 C 729.789062 570.945312 729.429688 571.941406 729.027344 572.917969 C 728.621094 573.898438 728.167969 574.851562 727.667969 575.785156 C 727.171875 576.71875 726.625 577.628906 726.039062 578.507812 C 725.449219 579.386719 724.820312 580.238281 724.148438 581.054688 C 723.476562 581.871094 722.765625 582.65625 722.019531 583.40625 C 721.269531 584.152344 720.484375 584.863281 719.667969 585.535156 C 718.847656 586.207031 718 586.835938 717.117188 587.425781 C 716.238281 588.011719 715.332031 588.554688 714.398438 589.054688 C 713.464844 589.554688 712.507812 590.003906 711.527344 590.410156 C 710.550781 590.816406 709.554688 591.171875 708.542969 591.480469 C 707.527344 591.785156 706.503906 592.042969 705.464844 592.25 C 704.425781 592.457031 703.378906 592.613281 702.328125 592.714844 C 701.273438 592.820312 700.214844 592.871094 699.15625 592.871094 L 160.335938 592.871094 C 159.277344 592.871094 158.222656 592.820312 157.167969 592.714844 C 156.113281 592.613281 155.066406 592.457031 154.027344 592.25 C 152.992188 592.042969 151.964844 591.785156 150.953125 591.480469 C 149.9375 591.171875 148.941406 590.816406 147.964844 590.410156 C 146.984375 590.003906 146.03125 589.554688 145.097656 589.054688 C 144.164062 588.554688 143.253906 588.011719 142.375 587.425781 C 141.496094 586.835938 140.644531 586.207031 139.828125 585.535156 C 139.007812 584.863281 138.222656 584.152344 137.476562 583.40625 C 136.726562 582.65625 136.015625 581.871094 135.34375 581.054688 C 134.671875 580.238281 134.042969 579.386719 133.457031 578.507812 C 132.867188 577.628906 132.324219 576.71875 131.824219 575.785156 C 131.324219 574.851562 130.871094 573.898438 130.46875 572.917969 C 130.0625 571.941406 129.707031 570.945312 129.398438 569.933594 C 129.089844 568.921875 128.835938 567.894531 128.628906 566.855469 C 128.421875 565.820312 128.265625 564.773438 128.164062 563.71875 C 128.058594 562.667969 128.007812 561.609375 128.007812 560.550781 L 128.007812 161.949219 C 128.007812 160.890625 128.058594 159.835938 128.164062 158.78125 C 128.265625 157.730469 128.421875 156.683594 128.628906 155.644531 C 128.835938 154.609375 129.089844 153.582031 129.398438 152.570312 C 129.707031 151.554688 130.0625 150.5625 130.46875 149.582031 C 130.871094 148.605469 131.324219 147.648438 131.824219 146.714844 C 132.324219 145.78125 132.867188 144.875 133.457031 143.996094 C 134.042969 143.117188 134.671875 142.265625 135.34375 141.449219 C 136.015625 140.628906 136.726562 139.847656 137.476562 139.097656 C 138.222656 138.347656 139.007812 137.640625 139.828125 136.96875 C 140.644531 136.296875 141.496094 135.667969 142.375 135.078125 C 143.253906 134.492188 144.164062 133.945312 145.097656 133.449219 C 146.03125 132.949219 146.984375 132.496094 147.964844 132.09375 C 148.941406 131.6875 149.9375 131.332031 150.953125 131.023438 C 151.964844 130.714844 152.992188 130.460938 154.027344 130.253906 C 155.066406 130.046875 156.113281 129.890625 157.167969 129.789062 C 158.222656 129.683594 159.277344 129.632812 160.335938 129.632812 Z M 160.335938 129.632812 " fill-opacity="1" fill-rule="nonzero"/></g><path fill="#f44336" d="M 483.628906 388.183594 L 462.074219 388.183594 C 461.371094 388.183594 460.664062 388.21875 459.964844 388.289062 C 459.261719 388.355469 458.5625 388.460938 457.871094 388.597656 C 457.179688 388.734375 456.496094 388.90625 455.820312 389.113281 C 455.144531 389.316406 454.480469 389.554688 453.828125 389.824219 C 453.175781 390.09375 452.539062 390.394531 451.917969 390.726562 C 451.292969 391.0625 450.6875 391.421875 450.101562 391.816406 C 449.515625 392.207031 448.949219 392.628906 448.402344 393.074219 C 447.855469 393.523438 447.335938 393.996094 446.835938 394.496094 C 446.335938 394.992188 445.863281 395.515625 445.414062 396.0625 C 444.96875 396.605469 444.546875 397.171875 444.15625 397.757812 C 443.761719 398.347656 443.402344 398.949219 443.066406 399.574219 C 442.734375 400.195312 442.433594 400.832031 442.164062 401.484375 C 441.894531 402.136719 441.65625 402.800781 441.453125 403.476562 C 441.246094 404.152344 441.074219 404.835938 440.9375 405.527344 C 440.800781 406.21875 440.695312 406.914062 440.628906 407.617188 C 440.558594 408.320312 440.523438 409.023438 440.523438 409.730469 L 440.523438 549.777344 L 505.183594 549.777344 L 505.183594 409.730469 C 505.183594 409.023438 505.148438 408.320312 505.078125 407.617188 C 505.007812 406.914062 504.90625 406.21875 504.765625 405.527344 C 504.628906 404.835938 504.457031 404.152344 504.253906 403.476562 C 504.046875 402.800781 503.8125 402.136719 503.542969 401.484375 C 503.269531 400.832031 502.96875 400.195312 502.636719 399.574219 C 502.304688 398.949219 501.941406 398.347656 501.550781 397.757812 C 501.15625 397.171875 500.738281 396.605469 500.289062 396.0625 C 499.839844 395.515625 499.367188 394.992188 498.867188 394.496094 C 498.371094 393.996094 497.847656 393.523438 497.300781 393.074219 C 496.757812 392.625 496.191406 392.207031 495.601562 391.816406 C 495.015625 391.421875 494.410156 391.0625 493.789062 390.726562 C 493.167969 390.394531 492.527344 390.09375 491.875 389.824219 C 491.226562 389.554688 490.5625 389.316406 489.886719 389.113281 C 489.210938 388.90625 488.527344 388.734375 487.832031 388.597656 C 487.140625 388.460938 486.445312 388.355469 485.742188 388.289062 C 485.039062 388.21875 484.335938 388.183594 483.628906 388.183594 Z M 483.628906 388.183594 " fill-opacity="1" fill-rule="nonzero"/><path fill="#fbc02d" d="M 559.0625 355.863281 L 537.511719 355.863281 C 536.804688 355.863281 536.101562 355.898438 535.398438 355.96875 C 534.695312 356.039062 534 356.140625 533.304688 356.277344 C 532.613281 356.417969 531.929688 356.585938 531.253906 356.792969 C 530.578125 356.996094 529.914062 357.234375 529.261719 357.503906 C 528.609375 357.773438 527.972656 358.078125 527.351562 358.410156 C 526.730469 358.742188 526.125 359.105469 525.535156 359.496094 C 524.949219 359.886719 524.382812 360.308594 523.839844 360.753906 C 523.292969 361.203125 522.769531 361.675781 522.269531 362.175781 C 521.773438 362.675781 521.296875 363.195312 520.851562 363.742188 C 520.402344 364.289062 519.984375 364.855469 519.589844 365.441406 C 519.199219 366.027344 518.835938 366.632812 518.503906 367.253906 C 518.171875 367.875 517.867188 368.515625 517.597656 369.164062 C 517.328125 369.816406 517.089844 370.480469 516.886719 371.15625 C 516.679688 371.832031 516.511719 372.515625 516.371094 373.207031 C 516.234375 373.898438 516.132812 374.597656 516.0625 375.300781 C 515.992188 376 515.957031 376.707031 515.957031 377.410156 L 515.957031 549.777344 L 580.617188 549.777344 L 580.617188 377.410156 C 580.617188 376.707031 580.582031 376 580.511719 375.300781 C 580.445312 374.597656 580.339844 373.898438 580.203125 373.207031 C 580.066406 372.515625 579.894531 371.832031 579.6875 371.15625 C 579.484375 370.480469 579.246094 369.816406 578.976562 369.164062 C 578.707031 368.511719 578.40625 367.875 578.070312 367.253906 C 577.738281 366.632812 577.375 366.027344 576.984375 365.441406 C 576.59375 364.855469 576.171875 364.289062 575.722656 363.742188 C 575.277344 363.195312 574.804688 362.675781 574.304688 362.175781 C 573.804688 361.675781 573.28125 361.203125 572.738281 360.753906 C 572.191406 360.308594 571.625 359.886719 571.039062 359.496094 C 570.449219 359.105469 569.847656 358.742188 569.222656 358.410156 C 568.601562 358.078125 567.964844 357.773438 567.3125 357.503906 C 566.660156 357.234375 565.996094 356.996094 565.320312 356.792969 C 564.644531 356.585938 563.960938 356.417969 563.269531 356.277344 C 562.578125 356.140625 561.878906 356.039062 561.175781 355.96875 C 560.472656 355.898438 559.769531 355.863281 559.0625 355.863281 Z M 559.0625 355.863281 " fill-opacity="1" fill-rule="nonzero"/><path fill="#7cb342" d="M 634.5 420.503906 L 612.945312 420.503906 C 612.238281 420.503906 611.535156 420.539062 610.832031 420.605469 C 610.132812 420.675781 609.433594 420.777344 608.742188 420.917969 C 608.050781 421.054688 607.363281 421.226562 606.691406 421.429688 C 606.015625 421.636719 605.351562 421.871094 604.699219 422.144531 C 604.046875 422.414062 603.410156 422.714844 602.785156 423.046875 C 602.164062 423.378906 601.558594 423.742188 600.972656 424.132812 C 600.386719 424.527344 599.820312 424.945312 599.273438 425.394531 C 598.726562 425.839844 598.203125 426.316406 597.707031 426.8125 C 597.207031 427.3125 596.734375 427.835938 596.285156 428.378906 C 595.835938 428.925781 595.417969 429.492188 595.027344 430.078125 C 594.632812 430.664062 594.269531 431.269531 593.9375 431.890625 C 593.605469 432.515625 593.304688 433.152344 593.035156 433.804688 C 592.761719 434.457031 592.527344 435.117188 592.320312 435.792969 C 592.117188 436.46875 591.945312 437.152344 591.808594 437.84375 C 591.667969 438.539062 591.566406 439.234375 591.496094 439.9375 C 591.429688 440.640625 591.394531 441.34375 591.394531 442.050781 L 591.394531 549.777344 L 656.050781 549.777344 L 656.050781 442.050781 C 656.050781 441.34375 656.015625 440.640625 655.949219 439.9375 C 655.878906 439.234375 655.773438 438.539062 655.636719 437.84375 C 655.5 437.152344 655.328125 436.46875 655.125 435.792969 C 654.917969 435.117188 654.679688 434.457031 654.410156 433.804688 C 654.140625 433.152344 653.839844 432.515625 653.507812 431.890625 C 653.175781 431.269531 652.8125 430.664062 652.417969 430.078125 C 652.027344 429.492188 651.605469 428.925781 651.160156 428.378906 C 650.710938 427.835938 650.238281 427.3125 649.738281 426.8125 C 649.238281 426.316406 648.71875 425.839844 648.171875 425.394531 C 647.625 424.945312 647.058594 424.527344 646.472656 424.132812 C 645.886719 423.742188 645.28125 423.378906 644.660156 423.046875 C 644.035156 422.714844 643.398438 422.414062 642.746094 422.144531 C 642.09375 421.871094 641.429688 421.636719 640.753906 421.429688 C 640.078125 421.226562 639.394531 421.054688 638.703125 420.917969 C 638.011719 420.777344 637.3125 420.675781 636.613281 420.605469 C 635.910156 420.539062 635.203125 420.503906 634.5 420.503906 Z M 634.5 420.503906 " fill-opacity="1" fill-rule="nonzero"/><path fill="#212121" d="M 470.382812 219.730469 C 469.933594 219.183594 469.433594 218.6875 468.886719 218.242188 C 468.335938 217.792969 467.75 217.40625 467.125 217.074219 C 466.5 216.742188 465.847656 216.476562 465.171875 216.273438 C 464.492188 216.070312 463.800781 215.933594 463.097656 215.867188 C 462.394531 215.800781 461.691406 215.804688 460.984375 215.875 C 460.28125 215.945312 459.59375 216.085938 458.914062 216.292969 C 458.238281 216.503906 457.589844 216.773438 456.96875 217.109375 C 456.34375 217.445312 455.761719 217.835938 455.214844 218.289062 L 337.996094 315.085938 L 242.449219 239.675781 C 241.953125 239.289062 241.429688 238.945312 240.878906 238.648438 C 240.324219 238.351562 239.75 238.105469 239.152344 237.910156 C 238.558594 237.714844 237.949219 237.570312 237.328125 237.480469 C 236.707031 237.390625 236.082031 237.355469 235.453125 237.371094 C 234.828125 237.390625 234.207031 237.464844 233.589844 237.589844 C 232.976562 237.71875 232.378906 237.898438 231.792969 238.128906 C 231.210938 238.359375 230.652344 238.640625 230.117188 238.96875 C 229.582031 239.296875 229.078125 239.671875 228.609375 240.085938 L 131.621094 326.269531 C 131.113281 326.746094 130.660156 327.265625 130.253906 327.832031 C 129.847656 328.394531 129.496094 328.992188 129.207031 329.625 C 128.917969 330.257812 128.691406 330.910156 128.527344 331.585938 C 128.363281 332.261719 128.265625 332.945312 128.234375 333.640625 C 128.203125 334.335938 128.238281 335.027344 128.339844 335.714844 C 128.445312 336.402344 128.613281 337.074219 128.84375 337.730469 C 129.078125 338.382812 129.371094 339.011719 129.722656 339.609375 C 130.078125 340.207031 130.484375 340.765625 130.949219 341.285156 C 131.410156 341.804688 131.917969 342.277344 132.472656 342.695312 C 133.023438 343.117188 133.613281 343.484375 134.238281 343.789062 C 134.859375 344.097656 135.507812 344.34375 136.179688 344.523438 C 136.851562 344.707031 137.53125 344.820312 138.226562 344.871094 C 138.921875 344.921875 139.613281 344.90625 140.304688 344.820312 C 140.992188 344.738281 141.667969 344.589844 142.332031 344.375 C 142.992188 344.160156 143.625 343.882812 144.234375 343.546875 C 144.84375 343.207031 145.414062 342.816406 145.945312 342.367188 L 236.179688 262.179688 L 331.46875 337.390625 C 331.949219 337.769531 332.457031 338.105469 332.996094 338.398438 C 333.53125 338.691406 334.089844 338.933594 334.667969 339.132812 C 335.25 339.328125 335.839844 339.476562 336.445312 339.574219 C 337.046875 339.667969 337.65625 339.714844 338.265625 339.707031 C 338.878906 339.699219 339.484375 339.640625 340.085938 339.53125 C 340.6875 339.417969 341.277344 339.257812 341.851562 339.046875 C 342.425781 338.839844 342.976562 338.582031 343.507812 338.277344 C 344.035156 337.96875 344.539062 337.625 345.007812 337.234375 L 468.9375 234.890625 C 469.484375 234.441406 469.980469 233.941406 470.425781 233.390625 C 470.875 232.84375 471.261719 232.257812 471.59375 231.632812 C 471.925781 231.007812 472.195312 230.359375 472.398438 229.679688 C 472.601562 229.003906 472.734375 228.3125 472.800781 227.609375 C 472.871094 226.90625 472.867188 226.203125 472.796875 225.5 C 472.722656 224.792969 472.585938 224.105469 472.378906 223.429688 C 472.171875 222.753906 471.898438 222.105469 471.5625 221.480469 C 471.226562 220.859375 470.835938 220.273438 470.382812 219.730469 Z M 470.382812 219.730469 " fill-opacity="1" fill-rule="nonzero"/><path fill="#212121" d="M 666.828125 215.816406 L 569.839844 215.816406 C 569.132812 215.816406 568.433594 215.746094 567.738281 215.609375 C 567.042969 215.472656 566.371094 215.265625 565.714844 214.996094 C 565.0625 214.726562 564.441406 214.394531 563.851562 214 C 563.265625 213.605469 562.71875 213.160156 562.21875 212.660156 C 561.71875 212.160156 561.273438 211.617188 560.878906 211.027344 C 560.488281 210.441406 560.15625 209.820312 559.882812 209.164062 C 559.613281 208.511719 559.410156 207.839844 559.269531 207.144531 C 559.132812 206.449219 559.0625 205.75 559.0625 205.042969 C 559.0625 204.335938 559.132812 203.636719 559.269531 202.941406 C 559.410156 202.246094 559.613281 201.574219 559.882812 200.921875 C 560.15625 200.265625 560.488281 199.644531 560.878906 199.058594 C 561.273438 198.46875 561.71875 197.925781 562.21875 197.425781 C 562.71875 196.925781 563.265625 196.480469 563.851562 196.085938 C 564.441406 195.691406 565.0625 195.359375 565.714844 195.089844 C 566.371094 194.820312 567.042969 194.613281 567.738281 194.476562 C 568.433594 194.339844 569.132812 194.269531 569.839844 194.269531 L 666.828125 194.269531 C 667.535156 194.269531 668.238281 194.339844 668.929688 194.476562 C 669.625 194.613281 670.296875 194.820312 670.953125 195.089844 C 671.605469 195.359375 672.226562 195.691406 672.816406 196.085938 C 673.402344 196.480469 673.949219 196.925781 674.449219 197.425781 C 674.949219 197.925781 675.394531 198.46875 675.789062 199.058594 C 676.179688 199.644531 676.511719 200.265625 676.785156 200.921875 C 677.054688 201.574219 677.257812 202.246094 677.398438 202.941406 C 677.535156 203.636719 677.605469 204.335938 677.605469 205.042969 C 677.605469 205.75 677.535156 206.449219 677.398438 207.144531 C 677.257812 207.839844 677.054688 208.511719 676.785156 209.164062 C 676.511719 209.820312 676.179688 210.441406 675.789062 211.027344 C 675.394531 211.617188 674.949219 212.160156 674.449219 212.660156 C 673.949219 213.160156 673.402344 213.605469 672.816406 214 C 672.226562 214.394531 671.605469 214.726562 670.953125 214.996094 C 670.296875 215.265625 669.625 215.472656 668.929688 215.609375 C 668.238281 215.746094 667.535156 215.816406 666.828125 215.816406 Z M 666.828125 215.816406 " fill-opacity="1" fill-rule="nonzero"/><path fill="#212121" d="M 548.289062 205.042969 C 548.289062 205.75 548.21875 206.449219 548.082031 207.144531 C 547.941406 207.839844 547.738281 208.511719 547.46875 209.164062 C 547.195312 209.820312 546.863281 210.441406 546.472656 211.027344 C 546.078125 211.617188 545.632812 212.160156 545.132812 212.660156 C 544.628906 213.160156 544.085938 213.605469 543.496094 214 C 542.910156 214.394531 542.289062 214.726562 541.636719 214.996094 C 540.980469 215.265625 540.308594 215.472656 539.613281 215.609375 C 538.917969 215.746094 538.21875 215.816406 537.511719 215.816406 C 536.804688 215.816406 536.101562 215.746094 535.410156 215.609375 C 534.714844 215.472656 534.039062 215.265625 533.386719 214.996094 C 532.734375 214.726562 532.113281 214.394531 531.523438 214 C 530.9375 213.605469 530.390625 213.160156 529.890625 212.660156 C 529.390625 212.160156 528.945312 211.617188 528.550781 211.027344 C 528.15625 210.441406 527.824219 209.820312 527.554688 209.164062 C 527.285156 208.511719 527.078125 207.839844 526.941406 207.144531 C 526.804688 206.449219 526.734375 205.75 526.734375 205.042969 C 526.734375 204.335938 526.804688 203.636719 526.941406 202.941406 C 527.078125 202.246094 527.285156 201.574219 527.554688 200.921875 C 527.824219 200.265625 528.15625 199.644531 528.550781 199.058594 C 528.945312 198.46875 529.390625 197.925781 529.890625 197.425781 C 530.390625 196.925781 530.9375 196.480469 531.523438 196.085938 C 532.113281 195.691406 532.734375 195.359375 533.386719 195.089844 C 534.039062 194.820312 534.714844 194.613281 535.410156 194.476562 C 536.101562 194.339844 536.804688 194.269531 537.511719 194.269531 C 538.21875 194.269531 538.917969 194.339844 539.613281 194.476562 C 540.308594 194.613281 540.980469 194.820312 541.636719 195.089844 C 542.289062 195.359375 542.910156 195.691406 543.496094 196.085938 C 544.085938 196.480469 544.628906 196.925781 545.132812 197.425781 C 545.632812 197.925781 546.078125 198.46875 546.472656 199.058594 C 546.863281 199.644531 547.195312 200.265625 547.46875 200.921875 C 547.738281 201.574219 547.941406 202.246094 548.082031 202.941406 C 548.21875 203.636719 548.289062 204.335938 548.289062 205.042969 Z M 548.289062 205.042969 " fill-opacity="1" fill-rule="nonzero"/><path fill="#212121" d="M 666.828125 258.90625 L 569.839844 258.90625 C 569.132812 258.90625 568.433594 258.839844 567.738281 258.699219 C 567.042969 258.5625 566.371094 258.359375 565.714844 258.085938 C 565.0625 257.816406 564.441406 257.484375 563.851562 257.09375 C 563.265625 256.699219 562.71875 256.253906 562.21875 255.753906 C 561.71875 255.253906 561.273438 254.707031 560.878906 254.121094 C 560.488281 253.53125 560.15625 252.910156 559.882812 252.257812 C 559.613281 251.605469 559.410156 250.929688 559.269531 250.238281 C 559.132812 249.542969 559.0625 248.84375 559.0625 248.136719 C 559.0625 247.425781 559.132812 246.726562 559.269531 246.035156 C 559.410156 245.339844 559.613281 244.664062 559.882812 244.011719 C 560.15625 243.359375 560.488281 242.738281 560.878906 242.148438 C 561.273438 241.5625 561.71875 241.015625 562.21875 240.515625 C 562.71875 240.015625 563.265625 239.570312 563.851562 239.175781 C 564.441406 238.785156 565.0625 238.453125 565.714844 238.183594 C 566.371094 237.910156 567.042969 237.707031 567.738281 237.570312 C 568.433594 237.429688 569.132812 237.363281 569.839844 237.363281 L 666.828125 237.363281 C 667.535156 237.363281 668.238281 237.429688 668.929688 237.570312 C 669.625 237.707031 670.296875 237.910156 670.953125 238.183594 C 671.605469 238.453125 672.226562 238.785156 672.816406 239.175781 C 673.402344 239.570312 673.949219 240.015625 674.449219 240.515625 C 674.949219 241.015625 675.394531 241.5625 675.789062 242.148438 C 676.179688 242.738281 676.511719 243.359375 676.785156 244.011719 C 677.054688 244.664062 677.257812 245.339844 677.398438 246.035156 C 677.535156 246.726562 677.605469 247.425781 677.605469 248.136719 C 677.605469 248.84375 677.535156 249.542969 677.398438 250.238281 C 677.257812 250.929688 677.054688 251.605469 676.785156 252.257812 C 676.511719 252.910156 676.179688 253.53125 675.789062 254.121094 C 675.394531 254.707031 674.949219 255.253906 674.449219 255.753906 C 673.949219 256.253906 673.402344 256.699219 672.816406 257.09375 C 672.226562 257.484375 671.605469 257.816406 670.953125 258.085938 C 670.296875 258.359375 669.625 258.5625 668.929688 258.699219 C 668.238281 258.839844 667.535156 258.90625 666.828125 258.90625 Z M 666.828125 258.90625 " fill-opacity="1" fill-rule="nonzero"/><path fill="#212121" d="M 666.828125 302 L 569.839844 302 C 569.132812 302 568.433594 301.929688 567.738281 301.792969 C 567.042969 301.65625 566.371094 301.449219 565.714844 301.179688 C 565.0625 300.910156 564.441406 300.578125 563.851562 300.183594 C 563.265625 299.792969 562.71875 299.34375 562.21875 298.84375 C 561.71875 298.34375 561.273438 297.800781 560.878906 297.210938 C 560.488281 296.625 560.15625 296.003906 559.882812 295.347656 C 559.613281 294.695312 559.410156 294.023438 559.269531 293.328125 C 559.132812 292.636719 559.0625 291.933594 559.0625 291.226562 C 559.0625 290.519531 559.132812 289.820312 559.269531 289.125 C 559.410156 288.429688 559.613281 287.757812 559.882812 287.105469 C 560.15625 286.449219 560.488281 285.828125 560.878906 285.242188 C 561.273438 284.652344 561.71875 284.109375 562.21875 283.609375 C 562.71875 283.109375 563.265625 282.664062 563.851562 282.269531 C 564.441406 281.875 565.0625 281.542969 565.714844 281.273438 C 566.371094 281.003906 567.042969 280.800781 567.738281 280.660156 C 568.433594 280.523438 569.132812 280.453125 569.839844 280.453125 L 666.828125 280.453125 C 667.535156 280.453125 668.238281 280.523438 668.929688 280.660156 C 669.625 280.800781 670.296875 281.003906 670.953125 281.273438 C 671.605469 281.542969 672.226562 281.875 672.816406 282.269531 C 673.402344 282.664062 673.949219 283.109375 674.449219 283.609375 C 674.949219 284.109375 675.394531 284.652344 675.789062 285.242188 C 676.179688 285.828125 676.511719 286.449219 676.785156 287.105469 C 677.054688 287.757812 677.257812 288.429688 677.398438 289.125 C 677.535156 289.820312 677.605469 290.519531 677.605469 291.226562 C 677.605469 291.933594 677.535156 292.636719 677.398438 293.328125 C 677.257812 294.023438 677.054688 294.695312 676.785156 295.347656 C 676.511719 296.003906 676.179688 296.625 675.789062 297.210938 C 675.394531 297.800781 674.949219 298.34375 674.449219 298.84375 C 673.949219 299.34375 673.402344 299.792969 672.816406 300.183594 C 672.226562 300.578125 671.605469 300.910156 670.953125 301.179688 C 670.296875 301.449219 669.625 301.65625 668.929688 301.792969 C 668.238281 301.929688 667.535156 302 666.828125 302 Z M 666.828125 302 " fill-opacity="1" fill-rule="nonzero"/><path fill="#212121" d="M 548.289062 248.136719 C 548.289062 248.84375 548.21875 249.542969 548.082031 250.238281 C 547.941406 250.929688 547.738281 251.605469 547.46875 252.257812 C 547.195312 252.910156 546.863281 253.53125 546.472656 254.121094 C 546.078125 254.707031 545.632812 255.253906 545.132812 255.753906 C 544.628906 256.253906 544.085938 256.699219 543.496094 257.09375 C 542.910156 257.484375 542.289062 257.816406 541.636719 258.085938 C 540.980469 258.359375 540.308594 258.5625 539.613281 258.699219 C 538.917969 258.839844 538.21875 258.90625 537.511719 258.90625 C 536.804688 258.90625 536.101562 258.839844 535.410156 258.699219 C 534.714844 258.5625 534.039062 258.359375 533.386719 258.085938 C 532.734375 257.816406 532.113281 257.484375 531.523438 257.09375 C 530.9375 256.699219 530.390625 256.253906 529.890625 255.753906 C 529.390625 255.253906 528.945312 254.707031 528.550781 254.121094 C 528.15625 253.53125 527.824219 252.910156 527.554688 252.257812 C 527.285156 251.605469 527.078125 250.929688 526.941406 250.238281 C 526.804688 249.542969 526.734375 248.84375 526.734375 248.136719 C 526.734375 247.425781 526.804688 246.726562 526.941406 246.035156 C 527.078125 245.339844 527.285156 244.664062 527.554688 244.011719 C 527.824219 243.359375 528.15625 242.738281 528.550781 242.148438 C 528.945312 241.5625 529.390625 241.015625 529.890625 240.515625 C 530.390625 240.015625 530.9375 239.570312 531.523438 239.175781 C 532.113281 238.785156 532.734375 238.453125 533.386719 238.183594 C 534.039062 237.910156 534.714844 237.707031 535.410156 237.570312 C 536.101562 237.429688 536.804688 237.363281 537.511719 237.363281 C 538.21875 237.363281 538.917969 237.429688 539.613281 237.570312 C 540.308594 237.707031 540.980469 237.910156 541.636719 238.183594 C 542.289062 238.453125 542.910156 238.785156 543.496094 239.175781 C 544.085938 239.570312 544.628906 240.015625 545.132812 240.515625 C 545.632812 241.015625 546.078125 241.5625 546.472656 242.148438 C 546.863281 242.738281 547.195312 243.359375 547.46875 244.011719 C 547.738281 244.664062 547.941406 245.339844 548.082031 246.035156 C 548.21875 246.726562 548.289062 247.425781 548.289062 248.136719 Z M 548.289062 248.136719 " fill-opacity="1" fill-rule="nonzero"/><path fill="#212121" d="M 548.289062 291.226562 C 548.289062 291.933594 548.21875 292.636719 548.082031 293.328125 C 547.941406 294.023438 547.738281 294.695312 547.46875 295.347656 C 547.195312 296.003906 546.863281 296.625 546.472656 297.210938 C 546.078125 297.800781 545.632812 298.34375 545.132812 298.84375 C 544.628906 299.34375 544.085938 299.792969 543.496094 300.183594 C 542.910156 300.578125 542.289062 300.910156 541.636719 301.179688 C 540.980469 301.449219 540.308594 301.65625 539.613281 301.792969 C 538.917969 301.929688 538.21875 302 537.511719 302 C 536.804688 302 536.101562 301.929688 535.410156 301.792969 C 534.714844 301.65625 534.039062 301.449219 533.386719 301.179688 C 532.734375 300.910156 532.113281 300.578125 531.523438 300.183594 C 530.9375 299.792969 530.390625 299.34375 529.890625 298.84375 C 529.390625 298.34375 528.945312 297.800781 528.550781 297.210938 C 528.15625 296.625 527.824219 296.003906 527.554688 295.347656 C 527.285156 294.695312 527.078125 294.023438 526.941406 293.328125 C 526.804688 292.636719 526.734375 291.933594 526.734375 291.226562 C 526.734375 290.519531 526.804688 289.820312 526.941406 289.125 C 527.078125 288.429688 527.285156 287.757812 527.554688 287.105469 C 527.824219 286.449219 528.15625 285.828125 528.550781 285.242188 C 528.945312 284.652344 529.390625 284.109375 529.890625 283.609375 C 530.390625 283.109375 530.9375 282.664062 531.523438 282.269531 C 532.113281 281.875 532.734375 281.542969 533.386719 281.273438 C 534.039062 281.003906 534.714844 280.800781 535.410156 280.660156 C 536.101562 280.523438 536.804688 280.453125 537.511719 280.453125 C 538.21875 280.453125 538.917969 280.523438 539.613281 280.660156 C 540.308594 280.800781 540.980469 281.003906 541.636719 281.273438 C 542.289062 281.542969 542.910156 281.875 543.496094 282.269531 C 544.085938 282.664062 544.628906 283.109375 545.132812 283.609375 C 545.632812 284.109375 546.078125 284.652344 546.472656 285.242188 C 546.863281 285.828125 547.195312 286.449219 547.46875 287.105469 C 547.738281 287.757812 547.941406 288.429688 548.082031 289.125 C 548.21875 289.820312 548.289062 290.519531 548.289062 291.226562 Z M 548.289062 291.226562 " fill-opacity="1" fill-rule="nonzero"/><path fill="#f44336" d="M 224.996094 528.234375 L 101.375 594.09375 C 102.285156 595.804688 103.230469 597.492188 104.210938 599.160156 C 105.191406 600.828125 106.207031 602.476562 107.253906 604.101562 C 108.300781 605.726562 109.382812 607.332031 110.5 608.914062 C 111.613281 610.492188 112.761719 612.050781 113.941406 613.585938 C 115.121094 615.121094 116.332031 616.628906 117.570312 618.113281 C 118.8125 619.59375 120.085938 621.050781 121.386719 622.484375 C 122.691406 623.914062 124.023438 625.316406 125.382812 626.695312 C 126.742188 628.070312 128.132812 629.417969 129.546875 630.734375 C 130.964844 632.054688 132.40625 633.34375 133.878906 634.601562 C 135.347656 635.859375 136.84375 637.085938 138.363281 638.285156 C 139.882812 639.480469 141.429688 640.644531 142.996094 641.777344 C 144.566406 642.910156 146.160156 644.007812 147.773438 645.074219 C 149.386719 646.140625 151.023438 647.175781 152.679688 648.175781 C 154.339844 649.171875 156.015625 650.136719 157.710938 651.066406 C 159.410156 651.996094 161.125 652.890625 162.859375 653.746094 C 164.59375 654.605469 166.347656 655.429688 168.113281 656.214844 C 169.882812 657 171.667969 657.75 173.464844 658.460938 C 175.265625 659.171875 177.078125 659.847656 178.90625 660.484375 C 180.734375 661.121094 182.574219 661.71875 184.425781 662.277344 C 186.277344 662.839844 188.140625 663.359375 190.015625 663.84375 C 191.890625 664.328125 193.773438 664.769531 195.664062 665.175781 C 197.558594 665.582031 199.457031 665.949219 201.363281 666.273438 C 203.273438 666.601562 205.1875 666.886719 207.105469 667.132812 C 209.023438 667.382812 210.949219 667.589844 212.875 667.757812 C 214.804688 667.925781 216.734375 668.050781 218.667969 668.140625 C 220.601562 668.226562 222.535156 668.273438 224.472656 668.28125 C 226.40625 668.289062 228.339844 668.257812 230.273438 668.183594 C 232.207031 668.109375 234.140625 667.996094 236.070312 667.84375 C 238 667.691406 239.925781 667.5 241.84375 667.265625 C 243.765625 667.035156 245.683594 666.761719 247.589844 666.449219 C 249.5 666.136719 251.40625 665.785156 253.300781 665.394531 C 255.195312 665.003906 257.082031 664.574219 258.960938 664.105469 C 260.835938 663.636719 262.703125 663.128906 264.558594 662.582031 C 266.417969 662.039062 268.261719 661.453125 270.09375 660.832031 C 271.925781 660.207031 273.746094 659.546875 275.550781 658.847656 C 277.355469 658.152344 279.144531 657.417969 280.917969 656.644531 C 282.691406 655.871094 284.449219 655.0625 286.191406 654.21875 C 287.933594 653.371094 289.65625 652.492188 291.359375 651.574219 C 293.0625 650.660156 294.746094 649.707031 296.414062 648.722656 C 298.078125 647.734375 299.722656 646.714844 301.34375 645.660156 C 302.96875 644.605469 304.566406 643.519531 306.144531 642.398438 C 307.722656 641.277344 309.277344 640.125 310.804688 638.941406 C 312.335938 637.753906 313.839844 636.539062 315.320312 635.292969 C 316.796875 634.046875 318.25 632.769531 319.679688 631.460938 C 321.105469 630.152344 322.503906 628.816406 323.875 627.449219 C 325.246094 626.085938 326.585938 624.691406 327.898438 623.269531 C 329.214844 621.851562 330.496094 620.402344 331.75 618.929688 C 333.003906 617.453125 334.226562 615.953125 335.417969 614.429688 C 336.605469 612.90625 337.765625 611.355469 338.894531 609.78125 C 340.019531 608.210938 341.113281 606.613281 342.175781 604.996094 C 343.234375 603.378906 344.261719 601.738281 345.253906 600.078125 C 346.246094 598.417969 347.203125 596.738281 348.128906 595.035156 C 349.050781 593.335938 349.9375 591.617188 350.789062 589.878906 C 351.640625 588.144531 352.457031 586.390625 353.234375 584.617188 C 354.015625 582.847656 354.757812 581.0625 355.460938 579.257812 C 356.167969 577.457031 356.835938 575.640625 357.464844 573.8125 C 358.09375 571.984375 358.6875 570.140625 359.238281 568.289062 C 359.792969 566.433594 360.308594 564.570312 360.785156 562.695312 C 361.257812 560.820312 361.695312 558.933594 362.09375 557.042969 C 362.492188 555.148438 362.851562 553.246094 363.171875 551.339844 C 363.488281 549.429688 363.769531 547.515625 364.007812 545.597656 C 364.25 543.675781 364.449219 541.753906 364.609375 539.824219 C 364.769531 537.898438 364.886719 535.96875 364.96875 534.035156 C 365.046875 532.101562 365.089844 530.167969 365.089844 528.234375 Z M 224.996094 528.234375 " fill-opacity="1" fill-rule="nonzero"/><path fill="#fbc02d" d="M 224.996094 388.183594 C 221.988281 388.183594 218.980469 388.28125 215.980469 388.472656 C 212.976562 388.664062 209.984375 388.953125 207.003906 389.339844 C 204.019531 389.726562 201.050781 390.207031 198.101562 390.785156 C 195.148438 391.359375 192.21875 392.03125 189.308594 392.796875 C 186.398438 393.5625 183.519531 394.421875 180.664062 395.371094 C 177.8125 396.324219 174.992188 397.363281 172.207031 398.496094 C 169.417969 399.628906 166.671875 400.851562 163.964844 402.160156 C 161.257812 403.46875 158.59375 404.867188 155.976562 406.347656 C 153.359375 407.828125 150.789062 409.390625 148.273438 411.039062 C 145.757812 412.683594 143.296875 414.410156 140.890625 416.214844 C 138.484375 418.019531 136.140625 419.902344 133.855469 421.855469 C 131.570312 423.8125 129.351562 425.839844 127.195312 427.941406 C 125.042969 430.039062 122.957031 432.203125 120.945312 434.4375 C 118.929688 436.671875 116.988281 438.964844 115.125 441.324219 C 113.257812 443.683594 111.46875 446.097656 109.757812 448.570312 C 108.046875 451.046875 106.417969 453.570312 104.871094 456.148438 C 103.320312 458.726562 101.859375 461.351562 100.480469 464.027344 C 99.101562 466.699219 97.808594 469.414062 96.605469 472.167969 C 95.402344 474.921875 94.289062 477.714844 93.265625 480.542969 C 92.242188 483.371094 91.308594 486.226562 90.46875 489.113281 C 89.628906 492.003906 88.882812 494.914062 88.230469 497.847656 C 87.578125 500.785156 87.023438 503.738281 86.5625 506.710938 C 86.097656 509.679688 85.734375 512.664062 85.464844 515.660156 C 85.195312 518.652344 85.023438 521.652344 84.945312 524.660156 C 84.871094 527.667969 84.890625 530.671875 85.007812 533.675781 C 85.125 536.679688 85.339844 539.679688 85.652344 542.667969 C 85.960938 545.660156 86.367188 548.636719 86.871094 551.601562 C 87.375 554.566406 87.972656 557.511719 88.664062 560.4375 C 89.355469 563.367188 90.140625 566.265625 91.019531 569.140625 C 91.902344 572.019531 92.871094 574.863281 93.933594 577.675781 C 94.996094 580.488281 96.148438 583.265625 97.390625 586.003906 C 98.632812 588.742188 99.960938 591.4375 101.375 594.089844 L 224.996094 528.234375 Z M 224.996094 388.183594 " fill-opacity="1" fill-rule="nonzero"/><path fill="#7cb342" d="M 224.996094 388.183594 L 224.996094 528.234375 L 365.089844 528.234375 C 365.085938 525.941406 365.027344 523.652344 364.910156 521.363281 C 364.796875 519.074219 364.625 516.789062 364.398438 514.511719 C 364.171875 512.230469 363.890625 509.957031 363.550781 507.691406 C 363.214844 505.425781 362.820312 503.167969 362.371094 500.921875 C 361.921875 498.675781 361.417969 496.441406 360.859375 494.21875 C 360.300781 491.996094 359.6875 489.789062 359.019531 487.597656 C 358.355469 485.402344 357.632812 483.230469 356.859375 481.074219 C 356.085938 478.914062 355.261719 476.777344 354.382812 474.664062 C 353.503906 472.546875 352.574219 470.453125 351.59375 468.382812 C 350.613281 466.3125 349.582031 464.265625 348.5 462.246094 C 347.417969 460.226562 346.289062 458.230469 345.109375 456.265625 C 343.929688 454.300781 342.703125 452.367188 341.429688 450.464844 C 340.15625 448.558594 338.835938 446.6875 337.46875 444.84375 C 336.105469 443.003906 334.695312 441.199219 333.238281 439.429688 C 331.785156 437.65625 330.289062 435.921875 328.75 434.226562 C 327.210938 432.527344 325.628906 430.871094 324.007812 429.25 C 322.390625 427.628906 320.730469 426.050781 319.03125 424.511719 C 317.332031 422.972656 315.597656 421.476562 313.828125 420.023438 C 312.054688 418.566406 310.25 417.15625 308.410156 415.792969 C 306.566406 414.425781 304.695312 413.109375 302.789062 411.835938 C 300.882812 410.5625 298.949219 409.335938 296.984375 408.15625 C 295.015625 406.976562 293.023438 405.847656 291.003906 404.765625 C 288.980469 403.6875 286.9375 402.65625 284.863281 401.675781 C 282.792969 400.695312 280.699219 399.765625 278.582031 398.886719 C 276.464844 398.007812 274.328125 397.183594 272.167969 396.410156 C 270.011719 395.636719 267.835938 394.917969 265.644531 394.25 C 263.449219 393.582031 261.242188 392.96875 259.019531 392.410156 C 256.796875 391.851562 254.5625 391.351562 252.316406 390.902344 C 250.066406 390.453125 247.808594 390.058594 245.542969 389.71875 C 243.277344 389.382812 241.003906 389.097656 238.722656 388.871094 C 236.441406 388.644531 234.15625 388.476562 231.867188 388.359375 C 229.578125 388.246094 227.285156 388.1875 224.996094 388.183594 Z M 224.996094 388.183594 " fill-opacity="1" fill-rule="nonzero"/><path fill="#212121" d="M 677.605469 549.777344 L 440.523438 549.777344 C 439.464844 549.777344 438.410156 549.726562 437.355469 549.621094 C 436.300781 549.515625 435.257812 549.359375 434.21875 549.152344 C 433.179688 548.945312 432.15625 548.6875 431.140625 548.378906 C 430.128906 548.070312 429.132812 547.714844 428.15625 547.308594 C 427.179688 546.902344 426.222656 546.453125 425.289062 545.953125 C 424.355469 545.453125 423.449219 544.910156 422.570312 544.320312 C 421.691406 543.734375 420.839844 543.101562 420.023438 542.433594 C 419.203125 541.761719 418.421875 541.050781 417.671875 540.300781 C 416.925781 539.554688 416.214844 538.769531 415.542969 537.953125 C 414.871094 537.136719 414.242188 536.285156 413.652344 535.40625 C 413.066406 534.527344 412.519531 533.621094 412.023438 532.6875 C 411.523438 531.753906 411.070312 530.800781 410.664062 529.824219 C 410.257812 528.84375 409.902344 527.851562 409.59375 526.835938 C 409.285156 525.824219 409.027344 524.800781 408.820312 523.761719 C 408.613281 522.726562 408.457031 521.679688 408.351562 520.625 C 408.246094 519.574219 408.195312 518.519531 408.195312 517.460938 L 408.195312 345.09375 C 408.195312 344.382812 408.261719 343.683594 408.402344 342.988281 C 408.539062 342.296875 408.742188 341.621094 409.015625 340.96875 C 409.285156 340.316406 409.617188 339.695312 410.011719 339.105469 C 410.402344 338.519531 410.851562 337.972656 411.351562 337.472656 C 411.851562 336.972656 412.394531 336.527344 412.984375 336.132812 C 413.570312 335.742188 414.191406 335.410156 414.847656 335.140625 C 415.5 334.867188 416.175781 334.664062 416.867188 334.527344 C 417.5625 334.386719 418.261719 334.320312 418.96875 334.320312 C 419.679688 334.320312 420.378906 334.386719 421.074219 334.527344 C 421.765625 334.664062 422.441406 334.867188 423.09375 335.140625 C 423.746094 335.410156 424.367188 335.742188 424.957031 336.132812 C 425.546875 336.527344 426.089844 336.972656 426.589844 337.472656 C 427.089844 337.972656 427.539062 338.519531 427.929688 339.105469 C 428.324219 339.695312 428.65625 340.316406 428.925781 340.96875 C 429.195312 341.621094 429.402344 342.296875 429.539062 342.988281 C 429.675781 343.683594 429.746094 344.382812 429.746094 345.09375 L 429.746094 517.460938 C 429.746094 518.167969 429.816406 518.867188 429.957031 519.5625 C 430.09375 520.253906 430.300781 520.925781 430.570312 521.582031 C 430.839844 522.234375 431.171875 522.855469 431.566406 523.441406 C 431.960938 524.03125 432.40625 524.574219 432.90625 525.074219 C 433.40625 525.574219 433.949219 526.019531 434.539062 526.414062 C 435.125 526.808594 435.746094 527.140625 436.402344 527.410156 C 437.054688 527.679688 437.726562 527.886719 438.421875 528.023438 C 439.117188 528.164062 439.816406 528.230469 440.523438 528.234375 L 677.605469 528.234375 C 678.3125 528.234375 679.011719 528.300781 679.707031 528.441406 C 680.402344 528.578125 681.074219 528.78125 681.726562 529.054688 C 682.382812 529.324219 683.003906 529.65625 683.589844 530.046875 C 684.179688 530.441406 684.722656 530.886719 685.226562 531.386719 C 685.726562 531.886719 686.171875 532.433594 686.566406 533.019531 C 686.957031 533.609375 687.289062 534.230469 687.5625 534.882812 C 687.832031 535.535156 688.035156 536.210938 688.175781 536.902344 C 688.3125 537.597656 688.382812 538.296875 688.382812 539.003906 C 688.382812 539.714844 688.3125 540.414062 688.175781 541.109375 C 688.035156 541.800781 687.832031 542.476562 687.5625 543.128906 C 687.289062 543.78125 686.957031 544.402344 686.566406 544.992188 C 686.171875 545.578125 685.726562 546.125 685.226562 546.625 C 684.722656 547.125 684.179688 547.570312 683.589844 547.964844 C 683.003906 548.355469 682.382812 548.6875 681.726562 548.957031 C 681.074219 549.230469 680.402344 549.433594 679.707031 549.570312 C 679.011719 549.710938 678.3125 549.777344 677.605469 549.777344 Z M 677.605469 549.777344 " fill-opacity="1" fill-rule="nonzero"/><path fill="#f44336" d="M 171.113281 339.707031 C 171.113281 340.941406 171.050781 342.171875 170.929688 343.402344 C 170.808594 344.628906 170.628906 345.851562 170.386719 347.0625 C 170.148438 348.273438 169.847656 349.46875 169.488281 350.652344 C 169.128906 351.832031 168.714844 352.992188 168.242188 354.132812 C 167.769531 355.277344 167.242188 356.390625 166.660156 357.480469 C 166.078125 358.570312 165.441406 359.625 164.753906 360.652344 C 164.070312 361.679688 163.335938 362.671875 162.550781 363.625 C 161.765625 364.582031 160.9375 365.492188 160.066406 366.367188 C 159.191406 367.242188 158.277344 368.070312 157.324219 368.851562 C 156.367188 369.636719 155.375 370.371094 154.347656 371.054688 C 153.324219 371.742188 152.265625 372.375 151.175781 372.957031 C 150.085938 373.539062 148.96875 374.066406 147.828125 374.539062 C 146.6875 375.011719 145.527344 375.429688 144.34375 375.789062 C 143.160156 376.144531 141.964844 376.445312 140.753906 376.6875 C 139.542969 376.925781 138.320312 377.109375 137.09375 377.230469 C 135.863281 377.351562 134.628906 377.410156 133.394531 377.410156 C 132.160156 377.410156 130.925781 377.351562 129.699219 377.230469 C 128.46875 377.109375 127.25 376.925781 126.035156 376.6875 C 124.824219 376.445312 123.628906 376.144531 122.445312 375.789062 C 121.265625 375.429688 120.101562 375.011719 118.960938 374.539062 C 117.820312 374.066406 116.703125 373.539062 115.613281 372.957031 C 114.527344 372.375 113.46875 371.742188 112.441406 371.054688 C 111.414062 370.371094 110.421875 369.636719 109.46875 368.851562 C 108.511719 368.070312 107.597656 367.242188 106.722656 366.367188 C 105.851562 365.492188 105.023438 364.582031 104.238281 363.625 C 103.457031 362.671875 102.71875 361.679688 102.035156 360.652344 C 101.347656 359.625 100.714844 358.570312 100.132812 357.480469 C 99.546875 356.390625 99.019531 355.277344 98.546875 354.132812 C 98.074219 352.992188 97.660156 351.832031 97.300781 350.652344 C 96.941406 349.46875 96.644531 348.273438 96.402344 347.0625 C 96.160156 345.851562 95.980469 344.628906 95.859375 343.402344 C 95.738281 342.171875 95.675781 340.941406 95.675781 339.707031 C 95.675781 338.46875 95.738281 337.238281 95.859375 336.007812 C 95.980469 334.78125 96.160156 333.5625 96.402344 332.347656 C 96.644531 331.136719 96.941406 329.941406 97.300781 328.761719 C 97.660156 327.578125 98.074219 326.417969 98.546875 325.277344 C 99.019531 324.136719 99.546875 323.019531 100.132812 321.929688 C 100.714844 320.84375 101.347656 319.785156 102.035156 318.757812 C 102.71875 317.730469 103.457031 316.738281 104.238281 315.785156 C 105.023438 314.832031 105.851562 313.917969 106.722656 313.042969 C 107.597656 312.171875 108.511719 311.34375 109.46875 310.558594 C 110.421875 309.773438 111.414062 309.039062 112.441406 308.355469 C 113.46875 307.667969 114.527344 307.035156 115.613281 306.453125 C 116.703125 305.871094 117.820312 305.34375 118.960938 304.871094 C 120.101562 304.398438 121.265625 303.980469 122.445312 303.625 C 123.628906 303.265625 124.824219 302.964844 126.035156 302.722656 C 127.25 302.484375 128.46875 302.300781 129.699219 302.179688 C 130.925781 302.058594 132.160156 302 133.394531 302 C 134.628906 302 135.863281 302.058594 137.09375 302.179688 C 138.320312 302.300781 139.542969 302.484375 140.753906 302.722656 C 141.964844 302.964844 143.160156 303.265625 144.34375 303.625 C 145.527344 303.980469 146.6875 304.398438 147.828125 304.871094 C 148.96875 305.34375 150.085938 305.871094 151.175781 306.453125 C 152.265625 307.035156 153.324219 307.667969 154.347656 308.355469 C 155.375 309.039062 156.367188 309.773438 157.324219 310.558594 C 158.277344 311.34375 159.191406 312.171875 160.066406 313.042969 C 160.9375 313.917969 161.765625 314.832031 162.550781 315.785156 C 163.335938 316.738281 164.070312 317.730469 164.753906 318.757812 C 165.441406 319.785156 166.078125 320.84375 166.660156 321.929688 C 167.242188 323.019531 167.769531 324.136719 168.242188 325.277344 C 168.714844 326.417969 169.128906 327.578125 169.488281 328.761719 C 169.847656 329.941406 170.148438 331.136719 170.386719 332.347656 C 170.628906 333.5625 170.808594 334.78125 170.929688 336.007812 C 171.050781 337.238281 171.113281 338.46875 171.113281 339.707031 Z M 171.113281 339.707031 " fill-opacity="1" fill-rule="nonzero"/><path fill="#fbc02d" d="M 278.875 242.75 C 278.875 243.984375 278.816406 245.214844 278.695312 246.445312 C 278.574219 247.671875 278.394531 248.894531 278.152344 250.105469 C 277.910156 251.316406 277.609375 252.511719 277.253906 253.695312 C 276.894531 254.875 276.476562 256.035156 276.003906 257.175781 C 275.53125 258.320312 275.003906 259.433594 274.421875 260.523438 C 273.839844 261.613281 273.207031 262.667969 272.519531 263.695312 C 271.832031 264.722656 271.097656 265.714844 270.316406 266.667969 C 269.53125 267.625 268.703125 268.535156 267.828125 269.410156 C 266.957031 270.285156 266.042969 271.113281 265.085938 271.894531 C 264.132812 272.679688 263.140625 273.414062 262.113281 274.097656 C 261.085938 274.785156 260.027344 275.417969 258.9375 276 C 257.851562 276.582031 256.734375 277.109375 255.59375 277.582031 C 254.453125 278.054688 253.289062 278.472656 252.109375 278.832031 C 250.925781 279.1875 249.730469 279.488281 248.515625 279.730469 C 247.304688 279.96875 246.085938 280.152344 244.855469 280.273438 C 243.625 280.394531 242.394531 280.453125 241.160156 280.453125 C 239.925781 280.453125 238.691406 280.394531 237.460938 280.273438 C 236.234375 280.152344 235.011719 279.96875 233.800781 279.730469 C 232.589844 279.488281 231.390625 279.1875 230.210938 278.832031 C 229.027344 278.472656 227.867188 278.054688 226.726562 277.582031 C 225.585938 277.109375 224.46875 276.582031 223.378906 276 C 222.289062 275.417969 221.230469 274.785156 220.203125 274.097656 C 219.175781 273.414062 218.1875 272.679688 217.230469 271.894531 C 216.277344 271.113281 215.363281 270.285156 214.488281 269.410156 C 213.617188 268.535156 212.785156 267.625 212.003906 266.667969 C 211.21875 265.714844 210.484375 264.722656 209.796875 263.695312 C 209.113281 262.667969 208.476562 261.613281 207.894531 260.523438 C 207.3125 259.433594 206.785156 258.320312 206.3125 257.175781 C 205.839844 256.035156 205.425781 254.875 205.066406 253.695312 C 204.707031 252.511719 204.40625 251.316406 204.167969 250.105469 C 203.925781 248.894531 203.746094 247.671875 203.625 246.445312 C 203.503906 245.214844 203.441406 243.984375 203.441406 242.75 C 203.441406 241.511719 203.503906 240.28125 203.625 239.050781 C 203.746094 237.824219 203.925781 236.605469 204.167969 235.390625 C 204.40625 234.179688 204.707031 232.984375 205.066406 231.804688 C 205.425781 230.621094 205.839844 229.460938 206.3125 228.320312 C 206.785156 227.179688 207.3125 226.0625 207.894531 224.972656 C 208.476562 223.886719 209.113281 222.828125 209.796875 221.800781 C 210.484375 220.773438 211.21875 219.78125 212.003906 218.828125 C 212.785156 217.875 213.617188 216.960938 214.488281 216.085938 C 215.363281 215.214844 216.277344 214.386719 217.230469 213.601562 C 218.1875 212.816406 219.175781 212.082031 220.203125 211.398438 C 221.230469 210.710938 222.289062 210.078125 223.378906 209.496094 C 224.46875 208.914062 225.585938 208.386719 226.726562 207.914062 C 227.867188 207.441406 229.027344 207.023438 230.210938 206.667969 C 231.390625 206.308594 232.589844 206.007812 233.800781 205.765625 C 235.011719 205.527344 236.234375 205.34375 237.460938 205.222656 C 238.691406 205.105469 239.925781 205.042969 241.160156 205.042969 C 242.394531 205.042969 243.625 205.105469 244.855469 205.222656 C 246.085938 205.34375 247.304688 205.527344 248.515625 205.765625 C 249.730469 206.007812 250.925781 206.308594 252.109375 206.667969 C 253.289062 207.023438 254.453125 207.441406 255.59375 207.914062 C 256.734375 208.386719 257.851562 208.914062 258.9375 209.496094 C 260.027344 210.078125 261.085938 210.710938 262.113281 211.398438 C 263.140625 212.082031 264.132812 212.816406 265.085938 213.601562 C 266.042969 214.386719 266.957031 215.214844 267.828125 216.085938 C 268.703125 216.960938 269.53125 217.875 270.316406 218.828125 C 271.097656 219.78125 271.832031 220.773438 272.519531 221.800781 C 273.207031 222.828125 273.839844 223.886719 274.421875 224.972656 C 275.003906 226.0625 275.53125 227.179688 276.003906 228.320312 C 276.476562 229.460938 276.894531 230.621094 277.253906 231.804688 C 277.609375 232.984375 277.910156 234.179688 278.152344 235.390625 C 278.394531 236.605469 278.574219 237.824219 278.695312 239.050781 C 278.816406 240.28125 278.875 241.511719 278.875 242.75 Z M 278.875 242.75 " fill-opacity="1" fill-rule="nonzero"/><path fill="#1976d2" d="M 494.40625 231.976562 C 494.40625 233.210938 494.34375 234.441406 494.222656 235.671875 C 494.101562 236.898438 493.921875 238.121094 493.679688 239.332031 C 493.441406 240.542969 493.140625 241.738281 492.78125 242.921875 C 492.421875 244.101562 492.007812 245.265625 491.535156 246.40625 C 491.0625 247.546875 490.535156 248.660156 489.953125 249.75 C 489.371094 250.839844 488.734375 251.898438 488.046875 252.921875 C 487.363281 253.949219 486.628906 254.941406 485.84375 255.894531 C 485.058594 256.851562 484.230469 257.765625 483.359375 258.636719 C 482.484375 259.511719 481.570312 260.339844 480.617188 261.121094 C 479.660156 261.90625 478.667969 262.640625 477.640625 263.328125 C 476.617188 264.011719 475.558594 264.648438 474.46875 265.230469 C 473.378906 265.8125 472.261719 266.339844 471.121094 266.8125 C 469.980469 267.285156 468.820312 267.699219 467.636719 268.058594 C 466.453125 268.414062 465.257812 268.714844 464.046875 268.957031 C 462.835938 269.199219 461.613281 269.378906 460.382812 269.5 C 459.15625 269.621094 457.921875 269.679688 456.6875 269.679688 C 455.453125 269.679688 454.21875 269.621094 452.992188 269.5 C 451.761719 269.378906 450.542969 269.199219 449.328125 268.957031 C 448.117188 268.714844 446.921875 268.414062 445.738281 268.058594 C 444.558594 267.699219 443.394531 267.285156 442.253906 266.8125 C 441.113281 266.339844 439.996094 265.8125 438.90625 265.230469 C 437.820312 264.648438 436.761719 264.011719 435.734375 263.328125 C 434.707031 262.640625 433.714844 261.90625 432.761719 261.121094 C 431.804688 260.339844 430.890625 259.511719 430.015625 258.636719 C 429.144531 257.765625 428.316406 256.851562 427.53125 255.894531 C 426.75 254.941406 426.011719 253.949219 425.328125 252.921875 C 424.640625 251.898438 424.007812 250.839844 423.425781 249.75 C 422.839844 248.660156 422.3125 247.546875 421.839844 246.40625 C 421.367188 245.265625 420.953125 244.101562 420.59375 242.921875 C 420.234375 241.738281 419.9375 240.542969 419.695312 239.332031 C 419.453125 238.121094 419.273438 236.898438 419.152344 235.671875 C 419.03125 234.441406 418.96875 233.210938 418.96875 231.976562 C 418.96875 230.742188 419.03125 229.507812 419.152344 228.28125 C 419.273438 227.050781 419.453125 225.832031 419.695312 224.621094 C 419.9375 223.410156 420.234375 222.210938 420.59375 221.03125 C 420.953125 219.847656 421.367188 218.6875 421.839844 217.546875 C 422.3125 216.40625 422.839844 215.289062 423.425781 214.203125 C 424.007812 213.113281 424.640625 212.054688 425.328125 211.027344 C 426.011719 210 426.75 209.011719 427.53125 208.054688 C 428.316406 207.101562 429.144531 206.1875 430.015625 205.3125 C 430.890625 204.441406 431.804688 203.613281 432.761719 202.828125 C 433.714844 202.046875 434.707031 201.3125 435.734375 200.625 C 436.761719 199.9375 437.820312 199.304688 438.90625 198.722656 C 439.996094 198.140625 441.113281 197.613281 442.253906 197.140625 C 443.394531 196.667969 444.558594 196.253906 445.738281 195.894531 C 446.921875 195.535156 448.117188 195.234375 449.328125 194.996094 C 450.542969 194.753906 451.761719 194.574219 452.992188 194.453125 C 454.21875 194.332031 455.453125 194.269531 456.6875 194.269531 C 457.921875 194.269531 459.15625 194.332031 460.382812 194.453125 C 461.613281 194.574219 462.835938 194.753906 464.046875 194.996094 C 465.257812 195.234375 466.453125 195.535156 467.636719 195.894531 C 468.820312 196.253906 469.980469 196.667969 471.121094 197.140625 C 472.261719 197.613281 473.378906 198.140625 474.46875 198.722656 C 475.558594 199.304688 476.617188 199.9375 477.640625 200.625 C 478.667969 201.3125 479.660156 202.046875 480.617188 202.828125 C 481.570312 203.613281 482.484375 204.441406 483.359375 205.3125 C 484.230469 206.1875 485.058594 207.101562 485.84375 208.054688 C 486.628906 209.011719 487.363281 210 488.046875 211.027344 C 488.734375 212.054688 489.371094 213.113281 489.953125 214.203125 C 490.535156 215.289062 491.0625 216.40625 491.535156 217.546875 C 492.007812 218.6875 492.421875 219.847656 492.78125 221.03125 C 493.140625 222.210938 493.441406 223.410156 493.679688 224.621094 C 493.921875 225.832031 494.101562 227.050781 494.222656 228.28125 C 494.34375 229.507812 494.40625 230.742188 494.40625 231.976562 Z M 494.40625 231.976562 " fill-opacity="1" fill-rule="nonzero"/><path fill="#7cb342" d="M 375.863281 328.933594 C 375.863281 330.167969 375.804688 331.398438 375.683594 332.628906 C 375.5625 333.855469 375.378906 335.078125 375.140625 336.289062 C 374.898438 337.5 374.597656 338.695312 374.242188 339.878906 C 373.882812 341.058594 373.464844 342.222656 372.992188 343.363281 C 372.519531 344.503906 371.992188 345.617188 371.410156 346.707031 C 370.828125 347.796875 370.195312 348.855469 369.507812 349.878906 C 368.820312 350.90625 368.085938 351.898438 367.304688 352.851562 C 366.519531 353.808594 365.691406 354.722656 364.816406 355.59375 C 363.945312 356.46875 363.03125 357.296875 362.074219 358.078125 C 361.121094 358.863281 360.128906 359.597656 359.101562 360.285156 C 358.074219 360.96875 357.015625 361.605469 355.925781 362.1875 C 354.835938 362.769531 353.722656 363.296875 352.582031 363.769531 C 351.441406 364.242188 350.277344 364.65625 349.097656 365.015625 C 347.914062 365.371094 346.71875 365.671875 345.503906 365.914062 C 344.292969 366.15625 343.074219 366.335938 341.84375 366.457031 C 340.613281 366.578125 339.382812 366.636719 338.148438 366.636719 C 336.910156 366.636719 335.679688 366.578125 334.449219 366.457031 C 333.222656 366.335938 332 366.15625 330.789062 365.914062 C 329.578125 365.671875 328.378906 365.371094 327.199219 365.015625 C 326.015625 364.65625 324.855469 364.242188 323.714844 363.769531 C 322.570312 363.296875 321.457031 362.769531 320.367188 362.1875 C 319.277344 361.605469 318.21875 360.96875 317.191406 360.285156 C 316.164062 359.597656 315.175781 358.863281 314.21875 358.078125 C 313.265625 357.296875 312.351562 356.46875 311.476562 355.59375 C 310.601562 354.722656 309.773438 353.808594 308.992188 352.851562 C 308.207031 351.898438 307.472656 350.90625 306.785156 349.878906 C 306.101562 348.855469 305.464844 347.796875 304.882812 346.707031 C 304.300781 345.617188 303.773438 344.503906 303.300781 343.363281 C 302.828125 342.222656 302.414062 341.058594 302.054688 339.878906 C 301.695312 338.695312 301.394531 337.5 301.152344 336.289062 C 300.914062 335.078125 300.730469 333.855469 300.609375 332.628906 C 300.488281 331.398438 300.429688 330.167969 300.429688 328.933594 C 300.429688 327.699219 300.488281 326.464844 300.609375 325.238281 C 300.730469 324.007812 300.914062 322.789062 301.152344 321.578125 C 301.394531 320.367188 301.695312 319.167969 302.054688 317.988281 C 302.414062 316.804688 302.828125 315.644531 303.300781 314.503906 C 303.773438 313.363281 304.300781 312.246094 304.882812 311.15625 C 305.464844 310.070312 306.101562 309.011719 306.785156 307.984375 C 307.472656 306.957031 308.207031 305.96875 308.992188 305.011719 C 309.773438 304.058594 310.601562 303.144531 311.476562 302.269531 C 312.351562 301.398438 313.265625 300.570312 314.21875 299.785156 C 315.175781 299.003906 316.164062 298.265625 317.191406 297.582031 C 318.21875 296.894531 319.277344 296.261719 320.367188 295.679688 C 321.457031 295.097656 322.570312 294.570312 323.714844 294.097656 C 324.855469 293.625 326.015625 293.210938 327.199219 292.851562 C 328.378906 292.492188 329.578125 292.191406 330.789062 291.953125 C 332 291.710938 333.222656 291.53125 334.449219 291.410156 C 335.679688 291.289062 336.910156 291.226562 338.148438 291.226562 C 339.382812 291.226562 340.613281 291.289062 341.84375 291.410156 C 343.074219 291.53125 344.292969 291.710938 345.503906 291.953125 C 346.71875 292.191406 347.914062 292.492188 349.097656 292.851562 C 350.277344 293.210938 351.441406 293.625 352.582031 294.097656 C 353.722656 294.570312 354.835938 295.097656 355.925781 295.679688 C 357.015625 296.261719 358.074219 296.894531 359.101562 297.582031 C 360.128906 298.265625 361.121094 299.003906 362.074219 299.785156 C 363.03125 300.570312 363.945312 301.398438 364.816406 302.269531 C 365.691406 303.144531 366.519531 304.058594 367.304688 305.011719 C 368.085938 305.96875 368.820312 306.957031 369.507812 307.984375 C 370.195312 309.011719 370.828125 310.070312 371.410156 311.15625 C 371.992188 312.246094 372.519531 313.363281 372.992188 314.503906 C 373.464844 315.644531 373.882812 316.804688 374.242188 317.988281 C 374.597656 319.167969 374.898438 320.367188 375.140625 321.578125 C 375.378906 322.789062 375.5625 324.007812 375.683594 325.238281 C 375.804688 326.464844 375.863281 327.699219 375.863281 328.933594 Z M 375.863281 328.933594 " fill-opacity="1" fill-rule="nonzero"/></svg>